<svg height='300px' width='300px'  fill="#000000" xmlns="http://www.w3.org/2000/svg" xmlns:xlink="http://www.w3.org/1999/xlink" version="1.1" x="0px" y="0px" viewBox="0 0 64 64" style="enable-background:new 0 0 64 64;" xml:space="preserve"><g><path d="M47,33c0-4.411-3.589-8-8-8h-1.356C39.688,23.349,41,20.826,41,18v-5c0-3.309-2.691-6-6-6h-6c-3.309,0-6,2.691-6,6v5   c0,2.826,1.312,5.349,3.356,7H25c-4.411,0-8,3.589-8,8v12h7h1h14h1h7V33z M37.823,29.417l-4.059,1.739L36.535,27h0.684   L37.823,29.417z M26.781,27h0.684l2.771,4.156l-4.059-1.739L26.781,27z M34.132,27L32,30.197L29.868,27H34.132z M29,9h6   c2.206,0,4,1.794,4,4v1.39l-0.56-0.933C37.901,12.558,36.916,12,35.868,12h-0.632c-1.143,0-2.171,0.635-2.683,1.659   c-0.211,0.421-0.895,0.421-1.105,0C30.936,12.635,29.907,12,28.764,12h-0.632c-1.048,0-2.034,0.558-2.572,1.457L25,14.39V13   C25,10.794,26.794,9,29,9z M25.013,18.255l2.262-3.77C27.455,14.186,27.783,14,28.132,14h0.632c0.381,0,0.724,0.212,0.894,0.552   C30.104,15.445,31.001,16,32,16s1.896-0.555,2.342-1.447C34.512,14.212,34.855,14,35.236,14h0.632c0.349,0,0.678,0.186,0.857,0.486   l2.262,3.77C38.851,21.996,35.774,25,32,25S25.149,21.996,25.013,18.255z M19,43v-2h4v2H19z M25,43V33h-2v6h-4v-6   c0-3.213,2.539-5.836,5.716-5.986l-0.892,3.569L32,34.088l8.177-3.504l-0.892-3.569C42.461,27.164,45,29.787,45,33v6h-4v-6h-2v10   H25z M41,43v-2h4v2H41z"></path><path d="M11,21c5.514,0,10-4.486,10-10S16.514,1,11,1S1,5.486,1,11S5.486,21,11,21z M11,3c4.411,0,8,3.589,8,8s-3.589,8-8,8   s-8-3.589-8-8S6.589,3,11,3z"></path><path d="M11,43C5.486,43,1,47.486,1,53s4.486,10,10,10s10-4.486,10-10S16.514,43,11,43z M11,61c-4.411,0-8-3.589-8-8s3.589-8,8-8   s8,3.589,8,8S15.411,61,11,61z"></path><path d="M53,21c5.514,0,10-4.486,10-10S58.514,1,53,1S43,5.486,43,11S47.486,21,53,21z M53,3c4.411,0,8,3.589,8,8s-3.589,8-8,8   s-8-3.589-8-8S48.589,3,53,3z"></path><path d="M53,43c-5.514,0-10,4.486-10,10s4.486,10,10,10s10-4.486,10-10S58.514,43,53,43z M53,61c-4.411,0-8-3.589-8-8s3.589-8,8-8   s8,3.589,8,8S57.411,61,53,61z"></path><path d="M56.433,50.981l1.517-1.517l-1.414-1.414l-1.517,1.517c-0.316-0.186-0.656-0.33-1.019-0.425V47h-2v2.142   c-0.363,0.094-0.704,0.238-1.019,0.425l-1.517-1.517l-1.414,1.414l1.517,1.517c-0.186,0.316-0.33,0.656-0.425,1.019H47v2h2.142   c0.094,0.363,0.238,0.704,0.425,1.019l-1.517,1.517l1.414,1.414l1.517-1.517c0.316,0.186,0.656,0.33,1.019,0.425V59h2v-2.142   c0.363-0.094,0.704-0.238,1.019-0.425l1.517,1.517l1.414-1.414l-1.517-1.517c0.186-0.316,0.33-0.656,0.425-1.019H59v-2h-2.142   C56.764,51.637,56.62,51.296,56.433,50.981z M53,55c-1.103,0-2-0.897-2-2s0.897-2,2-2s2,0.897,2,2S54.103,55,53,55z"></path><path d="M8,18h6v-4h4V8h-4V4H8v4H4v6h4V18z M6,12v-2h4V6h2v4h4v2h-4v4h-2v-4H6z"></path><path d="M54,14h-2c-0.551,0-1-0.449-1-1h-2c0,1.654,1.346,3,3,3v2h2v-2c1.654,0,3-1.346,3-3s-1.346-3-3-3h-2c-0.551,0-1-0.449-1-1   s0.449-1,1-1h2c0.551,0,1,0.449,1,1h2c0-1.654-1.346-3-3-3V4h-2v2c-1.654,0-3,1.346-3,3s1.346,3,3,3h2c0.551,0,1,0.449,1,1   S54.551,14,54,14z"></path><path d="M13.171,48c-0.787,0-1.538,0.236-2.171,0.674C10.366,48.236,9.616,48,8.829,48C6.717,48,5,49.717,5,51.829   c0,1.022,0.398,1.984,1.122,2.707L11,59.414l4.878-4.878C16.602,53.812,17,52.851,17,51.829C17,49.717,15.283,48,13.171,48z    M14.464,53.122L11,56.586l-3.464-3.464C7.19,52.776,7,52.317,7,51.829C7,50.82,7.82,50,8.829,50c0.488,0,0.947,0.19,1.293,0.536   L11,51.414l0.878-0.878C12.224,50.19,12.683,50,13.171,50C14.18,50,15,50.82,15,51.829C15,52.317,14.81,52.776,14.464,53.122z"></path></g></svg>